<svg width="434" height="132" viewBox="0 0 434 132" fill="none" xmlns="http://www.w3.org/2000/svg">
<g id="EXPORT-renova-logo">
<g id="Pittogramma">
<path id="Vector" d="M18.6816 55.3296C20.8715 49.3129 24.8595 44.1156 30.1044 40.4431C35.3493 36.7706 41.5971 34.8007 48 34.8007C54.4028 34.8007 60.6506 36.7706 65.8956 40.4431C71.1405 44.1156 75.1285 49.3129 77.3184 55.3296" stroke="#16A259" stroke-width="11.52"/>
<path id="Vector_2" d="M77.3184 76.6704C75.1285 82.6871 71.1405 87.8844 65.8956 91.5569C60.6506 95.2294 54.4028 97.1994 48 97.1994C41.5971 97.1994 35.3493 95.2294 30.1044 91.5569C24.8595 87.8844 20.8715 82.6871 18.6816 76.6704" stroke="#16A259" stroke-width="11.52"/>
<path id="Vector_3" d="M82.2432 68.8608L82.7304 53.3592L71.9064 57.3L82.2432 68.8608Z" fill="#16A259"/>
<path id="Vector_4" d="M13.7568 63.1392L13.2696 78.6408L24.0936 74.7024L13.7568 63.1392Z" fill="#16A259"/>
</g>
<path id="renova" d="M121.96 102V70.43V43.92H137.36V67.02H138.24C138.68 60.86 139.523 56.02 140.77 52.5C142.09 48.9067 143.703 46.3767 145.61 44.91C147.59 43.37 149.79 42.6 152.21 42.6C153.53 42.6 154.887 42.7833 156.28 43.15C157.747 43.5167 159.177 44.1033 160.57 44.91L159.69 64.71C158.077 63.7567 156.5 63.06 154.96 62.62C153.42 62.1067 151.953 61.85 150.56 61.85C148.213 61.85 146.233 62.51 144.62 63.83C143.007 65.15 141.76 67.0933 140.88 69.66C140.073 72.2267 139.67 75.3433 139.67 79.01V102H121.96ZM187.924 103.54C182.424 103.54 177.804 102.77 174.064 101.23C170.397 99.6167 167.427 97.4533 165.154 94.74C162.881 91.9533 161.231 88.8 160.204 85.28C159.251 81.76 158.774 78.0567 158.774 74.17C158.774 69.99 159.287 65.9933 160.314 62.18C161.414 58.3667 163.064 54.9933 165.264 52.06C167.537 49.0533 170.434 46.7067 173.954 45.02C177.547 43.26 181.837 42.38 186.824 42.38C191.811 42.38 196.064 43.26 199.584 45.02C203.177 46.7067 206.037 49.09 208.164 52.17C210.291 55.25 211.647 58.8067 212.234 62.84C212.894 66.8733 212.821 71.2367 212.014 75.93L169.884 76.59V66.91L198.374 66.36L196.064 71.97C196.504 68.5967 196.431 65.7733 195.844 63.5C195.331 61.1533 194.341 59.3933 192.874 58.22C191.407 56.9733 189.391 56.35 186.824 56.35C184.111 56.35 181.947 57.0467 180.334 58.44C178.721 59.8333 177.584 61.8133 176.924 64.38C176.264 66.8733 175.934 69.8433 175.934 73.29C175.934 79.23 176.924 83.5567 178.904 86.27C180.884 88.9833 183.927 90.34 188.034 90.34C189.794 90.34 191.261 90.12 192.434 89.68C193.607 89.24 194.561 88.6167 195.294 87.81C196.027 86.93 196.541 85.9033 196.834 84.73C197.127 83.4833 197.237 82.09 197.164 80.55L213.444 81.43C213.664 83.85 213.407 86.3433 212.674 88.91C212.014 91.4767 210.731 93.86 208.824 96.06C206.917 98.26 204.241 100.057 200.794 101.45C197.421 102.843 193.131 103.54 187.924 103.54ZM215.211 102V69.11V43.92H230.281V67.57H231.161C231.601 61.85 232.554 57.1567 234.021 53.49C235.487 49.75 237.577 46.9633 240.291 45.13C243.004 43.2967 246.451 42.38 250.631 42.38C256.937 42.38 261.667 44.47 264.821 48.65C268.047 52.83 269.661 59.0633 269.661 67.35V102H251.841V69.66C251.841 65.7 251.217 62.73 249.971 60.75C248.797 58.77 246.891 57.78 244.251 57.78C242.051 57.78 240.107 58.55 238.421 60.09C236.734 61.63 235.414 64.1233 234.461 67.57C233.507 71.0167 233.031 75.6367 233.031 81.43V102H215.211ZM299.638 103.54C294.065 103.54 289.115 102.44 284.788 100.24C280.462 97.9667 277.088 94.5933 274.668 90.12C272.248 85.5733 271.038 79.89 271.038 73.07C271.038 65.9567 272.285 60.1633 274.778 55.69C277.345 51.1433 280.792 47.8067 285.118 45.68C289.518 43.48 294.468 42.38 299.968 42.38C305.688 42.38 310.675 43.5167 314.928 45.79C319.255 47.99 322.592 51.3633 324.938 55.91C327.358 60.3833 328.568 66.0667 328.568 72.96C328.568 80.0733 327.285 85.9033 324.718 90.45C322.225 94.9233 318.778 98.2233 314.378 100.35C310.052 102.477 305.138 103.54 299.638 103.54ZM300.078 90.45C302.352 90.45 304.258 89.8267 305.798 88.58C307.338 87.26 308.512 85.3533 309.318 82.86C310.125 80.3667 310.528 77.3967 310.528 73.95C310.528 70.1367 310.088 66.9467 309.208 64.38C308.328 61.74 307.045 59.7233 305.358 58.33C303.745 56.9367 301.765 56.24 299.418 56.24C297.218 56.24 295.348 56.9 293.808 58.22C292.268 59.4667 291.095 61.3367 290.288 63.83C289.482 66.3233 289.078 69.33 289.078 72.85C289.078 78.4233 290.032 82.75 291.938 85.83C293.918 88.91 296.632 90.45 300.078 90.45ZM341.12 102L323.63 43.92H342.55L352.56 87.26H353L363.45 43.92H381.27L363.78 102H341.12ZM392.936 103.54C390.002 103.54 387.216 103.027 384.576 102C381.936 100.973 379.772 99.3233 378.086 97.05C376.399 94.7033 375.556 91.5867 375.556 87.7C375.556 84.1067 376.252 81.21 377.646 79.01C379.039 76.7367 380.909 74.94 383.256 73.62C385.602 72.2267 388.169 71.2 390.956 70.54C393.742 69.8067 396.492 69.1833 399.206 68.67C403.019 67.9367 405.879 67.35 407.786 66.91C409.692 66.47 410.976 65.9567 411.636 65.37C412.369 64.7833 412.736 63.9767 412.736 62.95C412.736 60.8233 411.929 59.21 410.316 58.11C408.776 57.01 406.722 56.46 404.156 56.46C402.542 56.46 400.929 56.7533 399.316 57.34C397.702 57.9267 396.382 58.99 395.356 60.53C394.329 61.9967 393.852 64.1233 393.926 66.91L378.086 65.81C377.939 61.19 378.636 57.3767 380.176 54.37C381.716 51.29 383.806 48.9067 386.446 47.22C389.159 45.46 392.092 44.2133 395.246 43.48C398.472 42.7467 401.662 42.38 404.816 42.38C410.609 42.38 415.376 43.48 419.116 45.68C422.856 47.8067 425.606 50.9233 427.366 55.03C429.199 59.0633 430.116 63.9767 430.116 69.77V80.11C430.116 82.53 430.116 84.9867 430.116 87.48C430.116 89.9 430.116 92.32 430.116 94.74C430.116 97.16 430.116 99.58 430.116 102H414.716C414.716 99.36 414.716 96.6833 414.716 93.97C414.716 91.2567 414.716 88.3967 414.716 85.39H414.056C413.762 88.69 412.662 91.7333 410.756 94.52C408.922 97.2333 406.466 99.4333 403.386 101.12C400.379 102.733 396.896 103.54 392.936 103.54ZM400.306 90.56C401.552 90.56 402.872 90.34 404.266 89.9C405.732 89.3867 407.089 88.58 408.336 87.48C409.656 86.38 410.719 84.8767 411.526 82.97C412.332 80.99 412.736 78.57 412.736 75.71V73.07L415.706 72.74C415.119 73.6933 414.129 74.4633 412.736 75.05C411.416 75.6367 409.912 76.1133 408.226 76.48C406.539 76.7733 404.816 77.1033 403.056 77.47C401.369 77.7633 399.792 78.2033 398.326 78.79C396.859 79.3033 395.649 80.0367 394.696 80.99C393.816 81.87 393.376 83.1167 393.376 84.73C393.376 86.6367 394.036 88.1033 395.356 89.13C396.749 90.0833 398.399 90.56 400.306 90.56Z" fill="#111111"/>
</g>
</svg>
